<?xml version="1.0" encoding="UTF-8"?>
<!DOCTYPE svg PUBLIC "-//W3C//DTD SVG 1.1//EN" "http://www.w3.org/Graphics/SVG/1.1/DTD/svg11.dtd">
<!-- Creator: CorelDRAW 2020 (64-Bit) -->
<svg xmlns="http://www.w3.org/2000/svg" xml:space="preserve" width="28.016mm" height="29.6813mm" version="1.1" style="shape-rendering:geometricPrecision; text-rendering:geometricPrecision; image-rendering:optimizeQuality; fill-rule:evenodd; clip-rule:evenodd"
viewBox="0 0 1524.74 1615.37"
 xmlns:xlink="http://www.w3.org/1999/xlink"
 xmlns:xodm="http://www.corel.com/coreldraw/odm/2003">
 <defs>
  <style type="text/css">
   <![CDATA[
    .str0 {stroke:white;stroke-width:10.88;stroke-miterlimit:22.9256}
    .fil4 {fill:white}
    .fil0 {fill:url(#id0)}
    .fil3 {fill:url(#id1)}
    .fil2 {fill:url(#id2)}
    .fil1 {fill:url(#id3)}
   ]]>
  </style>
  <linearGradient id="id0" gradientUnits="userSpaceOnUse" x1="902.76" y1="154.1" x2="902.63" y2="2700.45">
   <stop offset="0" style="stop-opacity:1; stop-color:#1178BD"/>
   <stop offset="0.141176" style="stop-opacity:1; stop-color:#48AFD5"/>
   <stop offset="1" style="stop-opacity:1; stop-color:#80E6ED"/>
  </linearGradient>
  <linearGradient id="id1" gradientUnits="objectBoundingBox" x1="58.644%" y1="24.1753%" x2="58.2079%" y2="132.434%">
   <stop offset="0" style="stop-opacity:1; stop-color:#1178BD"/>
   <stop offset="0.247059" style="stop-opacity:0.776471; stop-color:#2993CC"/>
   <stop offset="0.458824" style="stop-opacity:0.54902; stop-color:#41AFDB"/>
   <stop offset="1" style="stop-opacity:1; stop-color:#9EE8FA"/>
  </linearGradient>
  <linearGradient id="id2" gradientUnits="objectBoundingBox" xlink:href="#id1" x1="58.6708%" y1="24.1767%" x2="58.1813%" y2="132.433%">
  </linearGradient>
  <linearGradient id="id3" gradientUnits="objectBoundingBox" xlink:href="#id1" x1="59.0922%" y1="24.196%" x2="57.7597%" y2="132.413%">
  </linearGradient>
 </defs>
 <g id="Capa_x0020_1">
  <metadata id="CorelCorpID_0Corel-Layer"/>
  <g id="_1798495712624">
   <rect class="fil0" x="4.14" y="0.02" width="1520.61" height="1612.76"/>
   <g>
    <g>
     <path class="fil1" d="M350.28 914.79c-133.88,-108.66 -332.85,-66.7 -349.21,-63.01l2.97 763.58 1516.55 0 0 -676.27c0,0 -4.05,0 -18.22,0 -14.18,0 -38.47,10.12 -38.47,10.12 -180.2,48.6 -273.34,222.72 -273.34,222.72 0,0 -44.55,-34.42 -149.83,-40.49 -105.29,-6.08 -174.13,48.59 -174.13,48.59 0,0 -20.25,-46.57 -80.99,-50.62 -60.74,-4.05 -83.01,40.5 -83.01,40.5 0,0 0,-10.12 -64.79,-42.52 -64.79,-32.4 -147.81,-8.1 -147.81,-8.1 0,0 0,-91.11 -139.71,-204.5z"/>
     <path class="fil2" d="M872.68 738.64c-200.45,6.07 -269.29,155.91 -269.29,155.91 0,0 -16.2,-28.35 -113.39,-28.35 -97.19,0 -135.66,30.37 -135.66,30.37 0,0 -8.1,-36.45 -103.26,-115.41 -91.67,-76.06 -239.68,-48.8 -250.45,-46.7l0.46 117.32c16.36,-3.69 215.32,-45.65 349.21,63.01 139.71,113.39 139.71,204.5 139.71,204.5 0,0 83.02,-24.3 147.81,8.1 64.79,32.4 64.79,42.52 64.79,42.52 0,0 22.27,-44.55 83.01,-40.5 60.74,4.05 80.99,50.62 80.99,50.62 0,0 68.84,-54.67 174.13,-48.59 105.29,6.07 149.83,40.49 149.83,40.49 0,0 93.14,-174.13 273.34,-222.72 0,0 -58.72,-54.67 -149.83,-60.74 -91.12,-6.07 -166.03,24.3 -166.03,24.3 0,0 -74.91,-180.21 -275.37,-174.13z"/>
     <path class="fil3" d="M872.68 738.64c200.45,-6.07 275.37,174.13 275.37,174.13 0,0 74.91,-30.37 166.03,-24.3 91.12,6.07 149.83,60.74 149.83,60.74 0,0 24.29,-10.12 38.47,-10.12 14.17,0 18.22,0 18.22,0l0 -309.79c0,0 -58.72,-60.74 -186.28,-54.67 -127.56,6.07 -226.78,147.81 -226.78,147.81 0,0 -24.29,-6.07 -62.77,-10.12 -38.47,-4.05 -93.14,8.1 -93.14,8.1 0,0 0,-38.47 -139.71,-101.24 -139.71,-62.77 -257.15,14.17 -257.15,14.17 0,0 -22.27,-48.6 -176.15,-109.34 -153.88,-60.74 -378.63,50.62 -378.63,50.62l0.62 159.83c10.77,-2.11 158.78,-29.37 250.45,46.7 95.17,78.96 103.26,115.41 103.26,115.41 0,0 38.47,-30.37 135.66,-30.37 97.19,0 113.39,28.35 113.39,28.35 0,0 68.84,-149.83 269.29,-155.91z"/>
    </g>
    <g>
     <circle class="fil4 str0" cx="830.16" cy="244.6" r="12.15"/>
     <circle class="fil4 str0" cx="973.91" cy="521.99" r="6.07"/>
     <circle class="fil4 str0" cx="717.78" cy="132.22" r="3.04"/>
     <circle class="fil4 str0" cx="430.26" cy="261.81" r="3.04"/>
     <circle class="fil4 str0" cx="563.9" cy="523" r="3.04"/>
     <circle class="fil4 str0" cx="782.57" cy="395.44" r="3.04"/>
     <circle class="fil4 str0" cx="1394.06" cy="482.51" r="3.04"/>
     <circle class="fil4 str0" cx="1274.6" cy="302.3" r="9.11"/>
     <circle class="fil4 str0" cx="1129.32" cy="216.76" r="1.52"/>
    </g>
    <g>
     <path class="fil1" d="M350.28 914.79c-133.88,-108.66 -332.85,-66.7 -349.21,-63.01l2.97 763.58 1516.55 0 0 -676.27c0,0 -4.05,0 -18.22,0 -14.18,0 -38.47,10.12 -38.47,10.12 -180.2,48.6 -273.34,222.72 -273.34,222.72 0,0 -44.55,-34.42 -149.83,-40.49 -105.29,-6.08 -174.13,48.59 -174.13,48.59 0,0 -20.25,-46.57 -80.99,-50.62 -60.74,-4.05 -83.01,40.5 -83.01,40.5 0,0 0,-10.12 -64.79,-42.52 -64.79,-32.4 -147.81,-8.1 -147.81,-8.1 0,0 0,-91.11 -139.71,-204.5z"/>
     <path class="fil2" d="M872.68 738.64c-200.45,6.07 -269.29,155.91 -269.29,155.91 0,0 -16.2,-28.35 -113.39,-28.35 -97.19,0 -135.66,30.37 -135.66,30.37 0,0 -8.1,-36.45 -103.26,-115.41 -91.67,-76.06 -239.68,-48.8 -250.45,-46.7l0.46 117.32c16.36,-3.69 215.32,-45.65 349.21,63.01 139.71,113.39 139.71,204.5 139.71,204.5 0,0 83.02,-24.3 147.81,8.1 64.79,32.4 64.79,42.52 64.79,42.52 0,0 22.27,-44.55 83.01,-40.5 60.74,4.05 80.99,50.62 80.99,50.62 0,0 68.84,-54.67 174.13,-48.59 105.29,6.07 149.83,40.49 149.83,40.49 0,0 93.14,-174.13 273.34,-222.72 0,0 -58.72,-54.67 -149.83,-60.74 -91.12,-6.07 -166.03,24.3 -166.03,24.3 0,0 -74.91,-180.21 -275.37,-174.13z"/>
     <path class="fil3" d="M872.68 738.64c200.45,-6.07 275.37,174.13 275.37,174.13 0,0 74.91,-30.37 166.03,-24.3 91.12,6.07 149.83,60.74 149.83,60.74 0,0 24.29,-10.12 38.47,-10.12 14.17,0 18.22,0 18.22,0l0 -309.79c0,0 -58.72,-60.74 -186.28,-54.67 -127.56,6.07 -226.78,147.81 -226.78,147.81 0,0 -24.29,-6.07 -62.77,-10.12 -38.47,-4.05 -93.14,8.1 -93.14,8.1 0,0 0,-38.47 -139.71,-101.24 -139.71,-62.77 -257.15,14.17 -257.15,14.17 0,0 -22.27,-48.6 -176.15,-109.34 -153.88,-60.74 -378.63,50.62 -378.63,50.62l0.62 159.83c10.77,-2.11 158.78,-29.37 250.45,46.7 95.17,78.96 103.26,115.41 103.26,115.41 0,0 38.47,-30.37 135.66,-30.37 97.19,0 113.39,28.35 113.39,28.35 0,0 68.84,-149.83 269.29,-155.91z"/>
    </g>
   </g>
  </g>
 </g>
</svg>
